# xmcd
#
# Track frame offsets:
# 150
# 8212
# 20197
# 40469
# 64298
# 84553
# 99663
# 124328
# 148929
# 162548
# 175596
# 188956
# 218666
# 237748
# 250425
# 266690
# 280682
#
# Disc length: 4044 seconds
#
# Revision: 4
# Processed by: cddbd v1.5.2PL0 Copyright (c) Steve Scherf et al.
# Submitted via: Axialis_AX_CDPlayer 2.6
#
DISCID=090fca11
DTITLE=Various Artist - Il Grande Blues 06 - Da Chicago A Londra
DYEAR=2004
DGENRE=Blues
TTITLE0=Mercedes Benz [Janis Joplin]
TTITLE1=I Got To My Mojo Working [Michael Bloomfield]
TTITLE2=A World Of Hurt [John Mayall, feat. Jeff Healey]
TTITLE3=Killing Floor [Howlin'  Wolf, feat. Eric Clapton]
TTITLE4=A Nickel And A Nail [Roy Buchanan, feat. Otis Clay]
TTITLE5=Laundromat Blues [Albert King]
TTITLE6=Every Day I Have The Blues [Joe Williams and Count Basie Orchestra]
TTITLE7=Black Queen (Live) [Stephen Stills]
TTITLE8=I'm A Man [Bo Diddley]
TTITLE9=Eisenhower Blues [J. B. Lenoir]
TTITLE10=Juke (Alternate) [Little Walter]
TTITLE11=Bullfrog Blues (Live) [Rory Gallagher]
TTITLE12=Sugarman [Johnny Lang]
TTITLE13=Chicago Blues [Lonnie Johnson]
TTITLE14=Little Red Rooster [Willie Dixon]
TTITLE15=Worried Life Blues [John Lee Hooker]
TTITLE16=Jesus On The Mainline (Live) [Ry Cooder]
EXTD=
EXTT0=
EXTT1=
EXTT2=
EXTT3=
EXTT4=
EXTT5=
EXTT6=
EXTT7=
EXTT8=
EXTT9=
EXTT10=
EXTT11=
EXTT12=
EXTT13=
EXTT14=
EXTT15=
EXTT16=
PLAYORDER=
